<svg width="250" height="250" viewBox="0 0 250 250" fill="none" xmlns="http://www.w3.org/2000/svg">
<path fill-rule="evenodd" clip-rule="evenodd" d="M125 143.75C138.261 143.75 150.979 138.482 160.355 129.105C169.732 119.729 175 107.011 175 93.75C175 80.4892 169.732 67.7715 160.355 58.3947C150.979 49.0178 138.261 43.75 125 43.75C111.739 43.75 99.0215 49.0178 89.6447 58.3947C80.2678 67.7715 75 80.4892 75 93.75C75 107.011 80.2678 119.729 89.6447 129.105C99.0215 138.482 111.739 143.75 125 143.75ZM125 131.25C129.925 131.25 134.801 130.28 139.351 128.395C143.9 126.511 148.034 123.749 151.517 120.267C154.999 116.784 157.761 112.65 159.645 108.101C161.53 103.551 162.5 98.6746 162.5 93.75C162.5 88.8254 161.53 83.9491 159.645 79.3994C157.761 74.8497 154.999 70.7157 151.517 67.2335C148.034 63.7513 143.9 60.9891 139.351 59.1045C134.801 57.22 129.925 56.25 125 56.25C115.054 56.25 105.516 60.2009 98.4835 67.2335C91.4509 74.2661 87.5 83.8044 87.5 93.75C87.5 103.696 91.4509 113.234 98.4835 120.267C105.516 127.299 115.054 131.25 125 131.25Z" fill="white"/>
<path fill-rule="evenodd" clip-rule="evenodd" d="M250 125C250 194.037 194.037 250 125 250C55.9625 250 0 194.037 0 125C0 55.9625 55.9625 0 125 0C194.037 0 250 55.9625 250 125ZM185.188 220.062C167.194 231.485 146.313 237.534 125 237.5C103.176 237.535 81.8172 231.192 63.55 219.25C62.05 217.375 60.5312 215.438 58.9875 213.438C57.2033 211.094 56.2412 208.227 56.25 205.281C56.25 198.55 61.0875 192.906 67.5563 191.963C110.337 185.713 139.794 186.25 182.631 192.181C185.734 192.631 188.568 194.188 190.612 196.565C192.656 198.942 193.77 201.978 193.75 205.113C193.75 208.113 192.719 211.025 190.856 213.3C188.937 215.637 187.044 217.894 185.188 220.062ZM206.156 202.912C205.156 191.212 196.275 181.45 184.344 179.8C140.494 173.731 109.844 173.15 65.75 179.594C53.75 181.344 44.9063 191.194 43.8563 202.925C23.702 181.994 12.4603 154.057 12.5 125C12.5 62.8688 62.8688 12.5 125 12.5C187.131 12.5 237.5 62.8688 237.5 125C237.54 154.051 226.303 181.983 206.156 202.912Z" fill="white"/>
</svg>
